

<svg width="707px" height="183px" viewBox="0 0 707 183" version="1.1" xmlns="http://www.w3.org/2000/svg" xmlns:xlink="http://www.w3.org/1999/xlink">
    <!-- Generator: Sketch 47.1 (45422) - http://www.bohemiancoding.com/sketch -->
    <desc>Created with Sketch.</desc>
    <defs></defs>
    <g id="Page-1" stroke="none" stroke-width="1" fill="none" fill-rule="evenodd">
        <g id="Loopring" transform="translate(6,22)">
            <g id="Group-3" transform="translate(202,14)">
                <g id="Group-2">
                    <path d="M62.659415,73.629641 L21.233639,73.629641 L21.233639,8.16212 L0.39746,8.16212 L0.39746,92 L62.659415,92 L62.659415,73.629641 Z M235.020233,30.847664 C251.171354,30.847664 264.733364,44.163092 264.733364,62.040287 C264.733364,79.794191 251.171354,93.23291 235.020233,93.23291 C228.48581,93.23291 223.061006,91.506836 218.62253,88.671143 L218.62253,119.740475 L198.649388,119.740475 L198.649388,32.203865 L218.62253,32.203865 L218.62253,35.409431 C223.061006,32.573738 228.48581,30.847664 235.020233,30.847664 Z M231.074921,76.835207 C239.212127,76.835207 245.130095,70.300784 245.130095,62.040287 C245.130095,53.77979 239.212127,47.122076 231.074921,47.122076 C226.636445,47.122076 222.32126,48.478277 218.62253,52.793462 L218.62253,71.287112 C222.32126,75.602297 226.636445,76.835207 231.074921,76.835207 Z M316.145711,31.217537 C307.268759,31.217537 300.857627,34.05323 295.556114,38.614997 L295.556114,32.203865 L275.582972,32.203865 L275.582972,92 L295.556114,92 L295.556114,57.848393 C300.241172,53.163335 306.405722,50.574224 316.145711,50.204351 L316.145711,31.217537 Z M336.488726,22.833749 C342.899858,22.833749 348.201371,18.0254 348.201371,11.614268 C348.201371,5.079845 342.899858,0.271496 336.488726,0.271496 C329.954303,0.271496 324.776081,5.079845 324.776081,11.614268 C324.776081,18.0254 329.954303,22.833749 336.488726,22.833749 Z M346.598588,32.203865 L326.625446,32.203865 L326.625446,92 L346.598588,92 L346.598588,32.203865 Z M397.024607,30.3545 C390.613475,30.3545 385.311962,32.450447 380.503613,36.272468 L380.503613,32.203865 L360.530471,32.203865 L360.530471,92 L380.503613,92 L380.503613,54.519536 C383.955761,50.574224 387.901073,48.478277 391.599803,48.478277 C398.134226,48.478277 402.449411,52.54688 402.449411,61.053959 L402.449411,92 L422.545844,92 L422.545844,57.848393 C422.545844,40.834235 412.1894,30.3545 397.024607,30.3545 Z M498.986264,32.203865 L498.986264,91.013672 C498.986264,109.753904 485.670836,120.603512 466.930604,120.603512 C448.806827,120.603512 435.61469,110.247068 434.628362,94.712402 L454.354922,94.712402 C455.34125,100.260497 459.533144,103.712645 466.930604,103.712645 C473.711609,103.712645 479.013122,99.520751 479.013122,91.383545 L479.013122,85.712159 C474.574646,88.30127 469.273133,89.904053 462.73871,89.904053 C446.587589,89.904053 433.025579,76.958498 433.025579,60.807377 C433.025579,42.560309 446.587589,30.107918 462.73871,30.107918 C469.273133,30.107918 474.574646,31.833992 479.013122,34.546394 L479.013122,32.203865 L498.986264,32.203865 Z M466.684022,73.999514 C470.999207,73.999514 475.314392,72.643313 479.013122,68.451419 L479.013122,51.930425 C475.314392,47.738531 470.999207,46.38233 466.684022,46.38233 C458.546816,46.38233 452.628848,52.177007 452.628848,60.807377 C452.628848,67.3418 458.546816,73.999514 466.684022,73.999514 Z" id="L-pring" fill="#363f43" fill-rule="nonzero"></path>
                    <path d="M129.54252,60.87759 C118.195811,71.6271034 109.835078,78.494848 104.460322,81.480824 C96.398187,85.9597879 75.7949527,80.5850312 74.8991599,62.6691755 C74.0033672,44.7533199 91.02343,34.8995993 104.460322,40.274356 C113.41825,43.8575271 121.778982,50.7252718 129.54252,60.87759 Z M129.54252,60.9986928 C137.306057,50.8463746 145.66679,43.97863 154.624717,40.3954588 C168.061609,35.0207022 185.081672,44.8744228 184.185879,62.7902784 C183.290086,80.706134 162.686853,86.0808907 154.624717,81.6019268 C149.249961,78.6159509 140.889228,71.7482062 129.54252,60.9986928 Z" id="Combined-Shape" stroke="#363f43" stroke-width="17.26074"></path>
                </g>
            </g>
            <polygon id="Rectangle-7" stroke="#363f43" stroke-width="26" transform="translate(78.699102, 77.898521) rotate(-45) translate(-78.699102, -77.898521) " points="23.9356368 38.7702419 33.4344168 125.376763 116.719678 133.150054 133.462567 22.6469884"></polygon>
            <path d="M78.9,11.9918777 L78.5,130.001059" id="Line" stroke="#363f43" stroke-width="25" stroke-linecap="square"></path>
        </g>
        <g id="Loopring-Copy" transform="translate(6,22)" stroke="#363f43">
            <polygon id="Rectangle-7" stroke-width="26" transform="translate(78.699102, 77.898521) rotate(-45) translate(-78.699102, -77.898521) " points="23.9356368 38.7702419 33.4344168 125.376763 116.719678 133.150054 133.462567 22.6469884"></polygon>
            <path d="M78.9,11.9918777 L78.5,130.001059" id="Line" stroke-width="25" stroke-linecap="square"></path>
        </g>
    </g>
</svg>