<svg xmlns="http://www.w3.org/2000/svg" viewBox="0 0 30 40.9"><defs><style>.cls-1{fill:#fff;}</style></defs><title>logo2</title><g id="图层_2" data-name="图层 2"><g id="图层_1-2" data-name="图层 1"><path class="cls-1" d="M27.78,26.93l.08-.1a2.66,2.66,0,0,0,.54-2.36c-.33-1.25-1.54-2.26-3.24-3l.49,1L22.61,16h0a2.56,2.56,0,0,0,.61-.55,1.34,1.34,0,0,0,.22-1.24c-.24-.81-1.22-1.42-2.56-1.85l.62,1.31c.55.27.9.55,1,.84h0a.35.35,0,0,1-.08.35,1.47,1.47,0,0,1-.23.22h0L19.24,8.94h0a2.43,2.43,0,0,0,1.05-.72,1,1,0,0,0,.16-.89c-.23-.77-1.39-1.23-2.67-1.47L15,0,11.23,8.07h0c-.45-.16-.7-.33-.74-.42S11,7.22,11.73,7l.54-1.15c-1.35.27-2.46.74-2.72,1.47a1,1,0,0,0,.16.9A2.49,2.49,0,0,0,10.81,9L7.91,15.18a1.47,1.47,0,0,1-.31-.29.35.35,0,0,1-.08-.35c.08-.27.46-.57,1.09-.86l.61-1.3c-1.39.44-2.4,1.06-2.65,1.85a1.34,1.34,0,0,0,.22,1.24,2.7,2.7,0,0,0,.7.61h0l-4.66,10a1.59,1.59,0,0,1-.27-1.34,3.55,3.55,0,0,1,1.77-1.89L5,21.35c-1.8.79-3.09,1.83-3.44,3.12a2.66,2.66,0,0,0,.54,2.37c.06.08.14.16.21.24L0,32.1l15,8.8,15-9.3ZM15.5,3.39l2.34,4.93a12.7,12.7,0,0,1-2.34.26Zm-1,13.2a16.74,16.74,0,0,1-5.71-.94l3-6.39a14,14,0,0,0,2.72.32Zm1,14c5-.07,9.36-1.2,11.53-2.92l1.69,3.55L15.5,39.41Zm11.95-5.86h0a1.53,1.53,0,0,1-.16,1.16L25.91,23A3.31,3.31,0,0,1,27.45,24.73Zm-.86,2c-1.86,1.65-6.19,2.78-11.08,2.86v-12a17.06,17.06,0,0,0,6.22-1.09ZM21.3,15.61a16.31,16.31,0,0,1-5.8,1v-7a13.88,13.88,0,0,0,2.78-.34ZM18.33,7c.7.21,1.11.45,1.16.59h0c0,.11-.27.26-.68.43h0L17.89,6.1ZM14.5,3.43V8.58a13,13,0,0,1-2.29-.25Zm0,14.16v12c-4.77-.07-9-1.15-10.95-2.74L8.38,16.54A17.3,17.3,0,0,0,14.5,17.59ZM3.12,27.78c2.21,1.66,6.5,2.74,11.38,2.81v8.86L1.29,31.7Z"/></g></g></svg>