<svg xmlns="http://www.w3.org/2000/svg" viewBox="0 0 30 40.9"><defs><style>.cls-1{fill:#fff;}.cls-2{opacity:0.8;}</style></defs><title>logo1</title><g id="图层_2" data-name="图层 2"><g id="图层_1-2" data-name="图层 1"><polygon class="cls-1" points="0 32.1 15 0 30 31.6 15 40.9 0 32.1"/><g class="cls-2"><polygon points="0 32.1 15 0 15 40.9 0 32.1"/></g><path d="M20.45,7.33c-.23-.77-1.39-1.23-2.67-1.47L18.33,7c.7.21,1.11.45,1.16.59h0c0,.11-.27.26-.68.43A10.9,10.9,0,0,1,15,8.6a11.32,11.32,0,0,1-3.77-.53c-.45-.16-.7-.33-.74-.42S11,7.22,11.73,7l.54-1.15c-1.35.27-2.46.74-2.72,1.47a1,1,0,0,0,.16.9A2.49,2.49,0,0,0,10.81,9,12.35,12.35,0,0,0,15,9.6a12.19,12.19,0,0,0,4.24-.66,2.43,2.43,0,0,0,1.05-.72A1,1,0,0,0,20.45,7.33Z"/><path d="M23.44,14.24c-.24-.81-1.22-1.42-2.56-1.85l.62,1.31c.55.27.9.55,1,.84h0a.35.35,0,0,1-.08.35,1.47,1.47,0,0,1-.23.22c-.9.76-3.52,1.49-7.17,1.49s-6.12-.69-7.09-1.42a1.47,1.47,0,0,1-.31-.29.35.35,0,0,1-.08-.35c.08-.27.46-.57,1.09-.86l.61-1.3c-1.39.44-2.4,1.06-2.65,1.85a1.34,1.34,0,0,0,.22,1.24,2.7,2.7,0,0,0,.7.61C8.88,17,11.69,17.6,15,17.6S21.24,17,22.61,16a2.56,2.56,0,0,0,.61-.55A1.34,1.34,0,0,0,23.44,14.24Z"/><path d="M28.41,24.47c-.33-1.25-1.54-2.26-3.24-3L25.91,23a3.31,3.31,0,0,1,1.53,1.74h0a1.66,1.66,0,0,1-.37,1.5c-1.52,2-6.49,3.37-12.08,3.37S4.45,28.21,2.92,26.23a1.66,1.66,0,0,1-.37-1.5,3.55,3.55,0,0,1,1.77-1.89L5,21.35c-1.8.79-3.09,1.83-3.44,3.12a2.66,2.66,0,0,0,.54,2.37C3.86,29.09,9,30.6,15,30.6s11.14-1.51,12.87-3.76A2.66,2.66,0,0,0,28.41,24.47Z"/></g></g></svg>